<?xml version="1.0" encoding="UTF-8"?>
<svg xmlns="http://www.w3.org/2000/svg" width="1858.675" height="184.756" viewBox="0 0 1858.675 184.756">
  <defs>
    <style>.a{fill:#f77f00;}.b{fill:#fff;}</style>
  </defs>
  <g transform="translate(2257.813 -3054.22)">
    <path class="a" d="M1573.143-20.748c0-13.091-10.127-23.218-24.947-23.218-15.067,0-25.194,10.127-25.194,23.218,0,12.6,10.127,22.724,25.194,22.724C1563.016,1.976,1573.143-8.151,1573.143-20.748ZM1693.185,0h41.99V-80.522c0-37.05-21.242-58.786-53.105-58.786-18.525,0-33.345,8.151-41.743,19.76v-18.278H1598.09V0h42.237V-74.841c0-18.772,10.374-29.146,26.429-29.146s26.429,10.374,26.429,29.146Zm169.442-137.826H1757.405V-103h56.81l-57.3,69.407V0h106.951V-34.827h-59.774l58.539-69.407Z" transform="translate(-2263 3237)"></path>
    <path class="b" d="M21.983-47.918C21.983-12.1,41.99,0,70.642,0H92.131V-35.815H77.064c-9.386,0-12.844-3.458-12.844-11.609v-55.328H91.884v-35.074H64.22v-33.592H21.983v33.592H5.187v35.074h16.8Zm154.375-58.045c14.079,0,25.935,8.645,25.935,23.712H149.435C151.9-97.565,162.526-105.963,176.358-105.963Zm65.949,60.268H197.353c-3.458,7.41-10.127,13.338-21.983,13.338-13.585,0-24.7-8.4-26.182-26.429h95.589a106.732,106.732,0,0,0,.741-12.35c0-41.99-28.4-68.666-68.666-68.666-41,0-69.654,27.17-69.654,70.889S136.344,1.976,176.852,1.976C211.185,1.976,235.638-18.772,242.307-45.695ZM259.35-68.913c0,43.719,28.652,70.889,69.16,70.889,34.58,0,59.033-20.007,66.2-51.87H349.752c-3.705,10.127-10.374,15.808-21.983,15.808-15.067,0-25.441-11.856-25.441-34.827S312.7-103.74,327.769-103.74c11.609,0,18.525,6.175,21.983,15.808h44.954c-7.163-32.851-31.616-51.87-66.2-51.87C288-139.8,259.35-112.385,259.35-68.913ZM417.183,0H459.42V-74.841c0-18.772,10.374-29.146,26.429-29.146s26.429,10.374,26.429,29.146V0h41.99V-80.522c0-37.05-20.995-58.786-52.364-58.786-19.019,0-34.086,8.151-42.484,20.007V-182.78H417.183ZM590.33-47.918C590.33-12.1,610.337,0,638.989,0h21.489V-35.815H645.411c-9.386,0-12.844-3.458-12.844-11.609v-55.328h27.664v-35.074H632.567v-33.592H590.33v33.592h-16.8v35.074h16.8ZM683.943,0H726.18V-74.841c0-18.772,10.374-29.146,26.429-29.146s26.429,10.374,26.429,29.146V0h41.99V-80.522c0-37.05-20.995-58.786-52.364-58.786-19.019,0-34.086,8.151-42.484,20.007V-182.78H683.943Zm227.24-105.963c14.079,0,25.935,8.645,25.935,23.712H884.26C886.73-97.565,897.351-105.963,911.183-105.963Zm65.949,60.268H932.178c-3.458,7.41-10.127,13.338-21.983,13.338-13.585,0-24.7-8.4-26.182-26.429H979.6a106.729,106.729,0,0,0,.741-12.35c0-41.99-28.405-68.666-68.666-68.666-41,0-69.654,27.17-69.654,70.889S871.169,1.976,911.677,1.976C946.01,1.976,970.463-18.772,977.132-45.695ZM994.175-69.16c0,43.472,26.923,71.136,60.515,71.136,20.5,0,35.074-9.386,42.731-21.489V0h42.237V-137.826h-42.237v19.513c-7.41-12.1-21.983-21.489-42.484-21.489C1021.1-139.8,994.175-112.632,994.175-69.16Zm103.246.247c0,21.983-14.079,34.086-30.134,34.086-15.808,0-30.134-12.35-30.134-34.333S1051.479-103,1067.287-103C1083.342-103,1097.421-90.9,1097.421-68.913Zm79.534,20.995C1176.955-12.1,1196.962,0,1225.614,0H1247.1V-35.815h-15.067c-9.386,0-12.844-3.458-12.844-11.609v-55.328h27.664v-35.074h-27.664v-33.592h-42.237v33.592h-16.8v35.074h16.8Zm135.85-16.055c0-23.712,11.609-30.628,31.616-30.628h11.609v-44.707c-18.525,0-33.592,9.88-43.225,24.453v-22.971h-42.237V0h42.237Zm124.241-41.99c14.079,0,25.935,8.645,25.935,23.712h-52.858C1412.593-97.565,1423.214-105.963,1437.046-105.963Zm65.949,60.268h-44.954c-3.458,7.41-10.127,13.338-21.983,13.338-13.585,0-24.7-8.4-26.182-26.429h95.589a106.729,106.729,0,0,0,.741-12.35c0-41.99-28.4-68.666-68.666-68.666-41,0-69.654,27.17-69.654,70.889s29.146,70.889,69.654,70.889C1471.873,1.976,1496.326-18.772,1502.995-45.695Z" transform="translate(-2263 3237)"></path>
  </g>
</svg>
